<?xml version="1.0" encoding="utf-8"?>
<!-- Generator: Adobe Illustrator 26.2.1, SVG Export Plug-In . SVG Version: 6.00 Build 0)  -->
<svg version="1.1" id="Capa_1" xmlns="http://www.w3.org/2000/svg" xmlns:xlink="http://www.w3.org/1999/xlink" x="0px" y="0px"
	 viewBox="0 0 604.5 112" style="enable-background:new 0 0 604.5 112;" xml:space="preserve">
<style type="text/css">
	.st0{clip-path:url(#SVGID_00000134211227231351187130000005161647964842369955_);fill:#E21401;}
	.st1{clip-path:url(#SVGID_00000174590366641297494600000008545529277311288712_);fill:#02117F;}
	.st2{clip-path:url(#SVGID_00000067229180204625685290000012239090248600814012_);fill:#FFFB00;}
	.st3{clip-path:url(#SVGID_00000135673651623627638720000008730673555982302852_);fill:#FB1577;}
</style>
<g id="container4695b95d-d081-214b-3298-b642b6da1094">
	<g transform="translate(0, 0)">
		<g>
			<defs>
				<path id="SVGID_1_" d="M495.3,0H597c5,0,8.6,4.8,7.2,9.6l-26.8,92.8c-1.4,4.8-7.8,9.6-12.8,9.6H473c-5,0-8.6-4.8-7.2-9.6
					l26.8-92.8c1.4-4.8,7.8-9.6,12.8-9.6"/>
			</defs>
			<clipPath id="SVGID_00000041264162792797624850000015809335040408875669_">
				<use xlink:href="#SVGID_1_"  style="overflow:visible;"/>
			</clipPath>
			<path style="clip-path:url(#SVGID_00000041264162792797624850000015809335040408875669_);fill:#E21401;" d="M495.3,0H597
				c5,0,8.6,4.8,7.2,9.6l-26.8,92.8c-1.4,4.8-7.8,9.6-12.8,9.6H473c-5,0-8.6-4.8-7.2-9.6l26.8-92.8c1.4-4.8,7.8-9.6,12.8-9.6"/>
		</g>
	</g>
</g>
<g id="container12e4c8d2-2e79-9cb1-5dba-0b0c297ee58f">
	<g transform="translate(0, 0)">
		<g>
			<defs>
				<path id="SVGID_00000167396504933148863680000004372147633605599642_" d="M460.9,0h117.7c5,0,8.6,4.8,7.2,9.6L559,102.4
					c-1.4,4.8-7.8,9.6-12.8,9.6H438.5c-5,0-8.6-4.8-7.2-9.6l26.8-92.8c1.4-4.8,7.8-9.6,12.8-9.6"/>
			</defs>
			<clipPath id="SVGID_00000119819154192101977430000005605610609380510651_">
				<use xlink:href="#SVGID_00000167396504933148863680000004372147633605599642_"  style="overflow:visible;"/>
			</clipPath>
			<path style="clip-path:url(#SVGID_00000119819154192101977430000005605610609380510651_);fill:#02117F;" d="M460.9,0h117.7
				c5,0,8.6,4.8,7.2,9.6L559,102.4c-1.4,4.8-7.8,9.6-12.8,9.6H438.5c-5,0-8.6-4.8-7.2-9.6l26.8-92.8c1.4-4.8,7.8-9.6,12.8-9.6"/>
		</g>
	</g>
</g>
<g id="container4b39919c-1f71-a30c-3f2e-c068d507be57">
	<g transform="translate(0, 0)">
		<g>
			<defs>
				<path id="SVGID_00000035530392274213502980000011702822692711405958_" d="M446.3,0H548c5,0,8.6,4.8,7.2,9.6l-26.8,92.8
					c-1.4,4.8-7.8,9.6-12.8,9.6H424c-5,0-8.6-4.8-7.2-9.6l26.8-92.8c1.4-4.8,7.8-9.6,12.8-9.6"/>
			</defs>
			<clipPath id="SVGID_00000005971074208507750320000001053603774793884566_">
				<use xlink:href="#SVGID_00000035530392274213502980000011702822692711405958_"  style="overflow:visible;"/>
			</clipPath>
			<path style="clip-path:url(#SVGID_00000005971074208507750320000001053603774793884566_);fill:#FFFB00;" d="M446.3,0H548
				c5,0,8.6,4.8,7.2,9.6l-26.8,92.8c-1.4,4.8-7.8,9.6-12.8,9.6H424c-5,0-8.6-4.8-7.2-9.6l26.8-92.8c1.4-4.8,7.8-9.6,12.8-9.6"/>
		</g>
	</g>
</g>
<g id="container3cfe9f26-21e9-1ca7-8eb5-f67aea8afc0c">
	<g transform="translate(0, 0)">
		<g>
			<defs>
				<path id="SVGID_00000047743413652286908140000016022371149830330794_" d="M120.3,0H494c5,0,8.6,4.8,7.2,9.6l-26.8,92.8
					c-1.4,4.8-7.8,9.6-12.8,9.6H98c-5,0-8.6-4.8-7.2-9.6l26.8-92.8c1.4-4.8,7.8-9.6,12.8-9.6"/>
			</defs>
			<clipPath id="SVGID_00000126311466650859325140000014415579928905752505_">
				<use xlink:href="#SVGID_00000047743413652286908140000016022371149830330794_"  style="overflow:visible;"/>
			</clipPath>
			<path style="clip-path:url(#SVGID_00000126311466650859325140000014415579928905752505_);fill:#FB1577;" d="M120.3,0H494
				c5,0,8.6,4.8,7.2,9.6l-26.8,92.8c-1.4,4.8-7.8,9.6-12.8,9.6H98c-5,0-8.6-4.8-7.2-9.6l26.8-92.8c1.4-4.8,7.8-9.6,12.8-9.6"/>
		</g>
	</g>
</g>
</svg>
